<svg width="1280" height="720" xmlns="http://www.w3.org/2000/svg" xmlns:xlink="http://www.w3.org/1999/xlink" overflow="hidden"><defs><clipPath id="clip0"><rect x="0" y="0" width="1280" height="720"/></clipPath></defs><g clip-path="url(#clip0)"><rect x="0" y="0" width="1280" height="720" fill="#FFFFFF"/><path d="M554.576 259.924C555.034 251.188 562.487 244.477 571.223 244.935L571.223 244.935C579.959 245.393 586.67 252.846 586.212 261.582L583.275 317.631C582.817 326.367 575.364 333.078 566.628 332.62L566.628 332.62C557.891 332.162 551.18 324.709 551.638 315.973Z" fill="#002060" fill-rule="evenodd"/><path d="M499.458 236.602C499.001 227.866 505.712 220.412 514.448 219.955L514.448 219.955C523.184 219.497 530.637 226.208 531.095 234.944L534.032 290.992C534.49 299.728 527.779 307.182 519.043 307.639L519.043 307.639C510.307 308.097 502.854 301.386 502.396 292.65Z" fill="#002060" fill-rule="evenodd"/><path d="M538 100.333C538 99.0447 539.045 98 540.333 98L549.667 98C550.955 98 552 99.0447 552 100.333L552 457.667C552 458.955 550.955 460 549.667 460L540.333 460C539.045 460 538 458.955 538 457.667Z" fill-rule="evenodd"/><path d="M537 151C537 149.343 538.343 148 540 148L552 148C553.657 148 555 149.343 555 151L555 408C555 409.657 553.657 411 552 411L540 411C538.343 411 537 409.657 537 408Z" fill="#767171" fill-rule="evenodd"/><path d="M502 289.5C502 283.149 507.149 278 513.5 278L576.5 278C582.851 278 588 283.149 588 289.5L588 335.5C588 341.851 582.851 347 576.5 347L513.5 347C507.149 347 502 341.851 502 335.5Z" fill="#7030A0" fill-rule="evenodd"/><path d="M581.215 294.551C590.387 269.351 603.938 251.149 611.483 253.895 619.027 256.641 617.708 279.295 608.536 304.495 599.364 329.695 585.812 347.897 578.268 345.151 570.724 342.405 572.043 319.751 581.215 294.551Z" fill="#7030A0" fill-rule="evenodd"/><path d="M480.247 304.495C471.075 279.295 469.755 256.641 477.3 253.895 484.844 251.149 498.395 269.351 507.567 294.551 516.739 319.751 518.059 342.405 510.514 345.151 502.97 347.897 489.419 329.695 480.247 304.495Z" fill="#7030A0" fill-rule="evenodd"/><path d="M473 266 475.857 209 491.143 209 494 266Z" fill="#7030A0" fill-rule="evenodd"/><path d="M477 200.5C477 192.492 505.878 186 541.5 186 577.122 186 606 192.492 606 200.5L598.75 200.5C598.75 196.496 573.118 193.25 541.5 193.25 509.882 193.25 484.25 196.496 484.25 200.5Z" fill="#7F7F7F" fill-rule="evenodd"/><path d="M588.807 191.013C588.884 190.133 589.66 189.482 590.54 189.559L621.223 192.243C622.103 192.32 622.754 193.096 622.677 193.976L622.12 200.352C622.042 201.232 621.266 201.884 620.386 201.807L589.703 199.122C588.823 199.045 588.172 198.269 588.249 197.389Z" fill-rule="evenodd"/><path d="M466.19 192.976C466.113 192.096 466.764 191.32 467.644 191.243L498.327 188.559C499.208 188.482 499.984 189.133 500.061 190.013L500.618 196.389C500.695 197.269 500.044 198.045 499.164 198.122L468.481 200.807C467.601 200.884 466.825 200.232 466.748 199.352Z" fill-rule="evenodd"/><path d="M597 191.167C597 189.418 598.418 188 600.167 188L612.833 188C614.582 188 616 189.418 616 191.167L616 205.833C616 207.582 614.582 209 612.833 209L600.167 209C598.418 209 597 207.582 597 205.833Z" fill="#CA9166" fill-rule="evenodd"/><path d="M487 289C487 282.925 513.191 278 545.5 278 577.809 278 604 282.925 604 289 604 295.075 577.809 300 545.5 300 513.191 300 487 295.075 487 289Z" fill="#7030A0" fill-rule="evenodd"/><path d="M474 191.167C474 189.418 475.418 188 477.167 188L489.833 188C491.582 188 493 189.418 493 191.167L493 205.833C493 207.582 491.582 209 489.833 209L477.167 209C475.418 209 474 207.582 474 205.833Z" fill="#CA9166" fill-rule="evenodd"/><path d="M465.5 183.5C482.069 183.5 495.5 186.186 495.5 189.5" stroke="#000000" stroke-width="3" stroke-miterlimit="8" fill="none" fill-rule="evenodd"/><path d="M593.501 191.056C593.378 186.914 606.709 183.531 623.277 183.5 623.539 183.5 623.801 183.5 624.062 183.501" stroke="#000000" stroke-width="3" stroke-miterlimit="8" fill="none" fill-rule="evenodd"/><path d="M596 266 598.721 209 613.279 209 616 266Z" fill="#7030A0" fill-rule="evenodd"/><path d="M515 263.5C515 242.237 528.655 225 545.5 225 562.345 225 576 242.237 576 263.5 576 284.763 562.345 302 545.5 302 528.655 302 515 284.763 515 263.5Z" fill="#ED7D31" fill-rule="evenodd"/><path d="M542 263C542 246.431 543.791 233 546 233 548.209 233 550 246.431 550 263 550 279.569 548.209 293 546 293 543.791 293 542 279.569 542 263Z" fill="#C55A11" fill-rule="evenodd"/><path d="M557 262C557 249.85 558.119 240 559.5 240 560.881 240 562 249.85 562 262 562 274.15 560.881 284 559.5 284 558.119 284 557 274.15 557 262Z" fill="#C55A11" fill-rule="evenodd"/><path d="M530 262C530 249.85 531.119 240 532.5 240 533.881 240 535 249.85 535 262 535 274.15 533.881 284 532.5 284 531.119 284 530 274.15 530 262Z" fill="#C55A11" fill-rule="evenodd"/><path d="M520 269C520 261.268 531.417 255 545.5 255 559.583 255 571 261.268 571 269L564 269C564 265.134 555.717 262 545.5 262 535.283 262 527 265.134 527 269Z" fill="#ED7D31" fill-rule="evenodd"/><path d="M537.5 186.167C537.5 185.246 538.246 184.5 539.167 184.5L552.833 184.5C553.754 184.5 554.5 185.246 554.5 186.167L554.5 192.833C554.5 193.754 553.754 194.5 552.833 194.5L539.167 194.5C538.246 194.5 537.5 193.754 537.5 192.833Z" stroke="#595959" stroke-width="1.33333" stroke-miterlimit="8" fill="#7F7F7F" fill-rule="evenodd"/><path d="M421 92.5C421 84.4919 427.268 78 435 78 442.732 78 449 84.4919 449 92.5 449 100.508 442.732 107 435 107 427.268 107 421 100.508 421 92.5Z" fill="#FFC000" fill-rule="evenodd"/><path d="M429 93C429 89.6863 431.686 87 435 87 438.314 87 441 89.6863 441 93 441 96.3137 438.314 99 435 99 431.686 99 429 96.3137 429 93Z" fill="#F4A70C" fill-rule="evenodd"/><path d="M641 92.5C641 84.4919 647.492 78 655.5 78 663.508 78 670 84.4919 670 92.5 670 100.508 663.508 107 655.5 107 647.492 107 641 100.508 641 92.5Z" fill="#FFC000" fill-rule="evenodd"/><path d="M650 93C650 89.6863 652.686 87 656 87 659.314 87 662 89.6863 662 93 662 96.3137 659.314 99 656 99 652.686 99 650 96.3137 650 93Z" fill="#F4A70C" fill-rule="evenodd"/><path d="M420 286.5C420 278.492 426.492 272 434.5 272 442.508 272 449 278.492 449 286.5 449 294.508 442.508 301 434.5 301 426.492 301 420 294.508 420 286.5Z" fill="#FFC000" fill-rule="evenodd"/><path d="M429 286.5C429 283.462 431.686 281 435 281 438.314 281 441 283.462 441 286.5 441 289.538 438.314 292 435 292 431.686 292 429 289.538 429 286.5Z" fill="#F4A70C" fill-rule="evenodd"/><path d="M641 286.5C641 278.492 647.492 272 655.5 272 663.508 272 670 278.492 670 286.5 670 294.508 663.508 301 655.5 301 647.492 301 641 294.508 641 286.5Z" fill="#FFC000" fill-rule="evenodd"/><path d="M650 286.5C650 283.462 652.686 281 656 281 659.314 281 662 283.462 662 286.5 662 289.538 659.314 292 656 292 652.686 292 650 289.538 650 286.5Z" fill="#F4A70C" fill-rule="evenodd"/><path d="M420 480.5C420 472.492 426.492 466 434.5 466 442.508 466 449 472.492 449 480.5 449 488.508 442.508 495 434.5 495 426.492 495 420 488.508 420 480.5Z" fill="#FFC000" fill-rule="evenodd"/><path d="M429 480C429 476.686 431.686 474 435 474 438.314 474 441 476.686 441 480 441 483.314 438.314 486 435 486 431.686 486 429 483.314 429 480Z" fill="#F4A70C" fill-rule="evenodd"/><path d="M641 479.5C641 471.492 647.492 465 655.5 465 663.508 465 670 471.492 670 479.5 670 487.508 663.508 494 655.5 494 647.492 494 641 487.508 641 479.5Z" fill="#FFC000" fill-rule="evenodd"/><path d="M650 480C650 476.686 652.686 474 656 474 659.314 474 662 476.686 662 480 662 483.314 659.314 486 656 486 652.686 486 650 483.314 650 480Z" fill="#F4A70C" fill-rule="evenodd"/><path d="M353 537C353 526.507 361.507 518 372 518 382.493 518 391 526.507 391 537 391 547.493 382.493 556 372 556 361.507 556 353 547.493 353 537Z" fill="#548235" fill-rule="evenodd"/><path d="M364.091 504.805 363.268 500.878 361.387 490.404 360.007 479.928 358.941 469.456 358.313 458.982 358 448.501 358.564 427.812 360.571 407.493 363.895 387.61 368.663 368.351 374.623 349.844 381.903 332.146 390.315 315.51 399.924 299.997 410.597 285.809 416.323 279.201 422.298 272.974 428.526 267.187 435.069 261.714 441.801 256.743 448.725 252.148 455.906 248.054 463.335 244.402 469.765 241.691 476.26 239.421 482.88 237.53 489.496 236.081 496.118 234.945 502.809 234.314 509.553 234.062 516.206 234.188 516.169 236.187 509.544 236.062 509.6 236.062 502.912 236.312 502.969 236.308 496.344 236.933 496.419 236.923 489.856 238.048 489.901 238.039 483.339 239.477 483.4 239.462 476.837 241.337 476.892 241.319 470.455 243.569 470.513 243.546 464.138 246.234 464.191 246.21 456.816 249.835 456.87 249.806 449.745 253.869 449.803 253.833 442.928 258.396 442.969 258.367 436.281 263.304 436.329 263.267 429.829 268.704 429.868 268.67 423.681 274.42 423.722 274.38 417.784 280.567 417.818 280.53 412.131 287.092 412.174 287.039 401.549 301.164 401.6 301.089 392.038 316.527 392.08 316.451 383.705 333.014 383.737 332.943 376.487 350.568 376.514 350.494 370.577 368.932 370.596 368.865 365.846 388.053 365.861 387.977 362.549 407.79 362.558 407.723 360.558 427.973 360.562 427.902 360 448.527 360 448.47 360.312 458.908 360.311 458.878 360.936 469.315 360.932 469.274 361.995 479.711 361.991 479.682 363.366 490.119 363.359 490.073 365.234 500.511 365.229 500.482 366.049 504.395ZM368.711 502.475 366.438 511.125 360.882 504.116Z"/></g></svg>